<?xml version="1.0" encoding="utf-8" ?>
<svg xmlns="http://www.w3.org/2000/svg" xmlns:xlink="http://www.w3.org/1999/xlink" width="1024" height="1024">
	<path fill="#FEFEFE" d="M0 0L1024 0L1024 1024L0 1024L0 0Z"/>
	<path fill="#040203" d="M395.568 790.496C395.931 790.447 396.294 790.398 396.659 790.364C398.48 790.198 400.017 790.561 401.386 791.83C402.372 792.745 402.773 793.892 402.713 795.228C402.628 797.121 401.561 798.241 400.296 799.496C398.33 799.798 396.673 800.034 394.933 798.802C393.775 797.982 393.276 796.968 393.122 795.584C392.887 793.472 394.205 791.903 395.568 790.496Z"/>
	<path fill="#040203" d="M247.637 654.479C249.742 654.5 251.444 654.494 252.986 656.199C253.94 657.254 254.187 658.31 254.09 659.698C253.946 661.763 252.59 662.955 251.12 664.187C249.313 664.195 247.345 664.138 245.917 662.84C244.9 661.914 244.422 660.962 244.503 659.561C244.637 657.273 246.118 655.989 247.637 654.479Z"/>
	<path fill="#040203" d="M363.483 723.926C365.386 724.247 366.886 724.599 368.09 726.264C369.009 727.534 369.311 728.956 368.863 730.492C368.252 732.591 366.79 733.328 364.977 734.185C363.074 733.987 361.253 733.684 360.059 732.009C359.386 731.064 359.192 729.906 359.409 728.779C359.875 726.362 361.521 725.169 363.483 723.926Z"/>
	<path fill="#040203" d="M327.497 694.442C329.631 694.546 331.419 694.652 332.884 696.462C333.796 697.59 334.005 698.816 333.826 700.221C333.555 702.352 332.103 703.552 330.538 704.799C328.374 704.548 326.689 704.202 325.15 702.528C324.165 701.456 323.649 700.06 323.913 698.604C324.293 696.504 325.799 695.48 327.497 694.442Z"/>
	<path fill="#040203" d="M628.479 219.934C628.655 219.934 628.832 219.928 629.008 219.935C630.967 220.003 632.598 220.268 633.889 221.862C634.821 223.012 635.218 224.38 634.917 225.841C634.492 227.9 633.321 228.923 631.657 230.053C631.062 230.049 631.184 230.06 630.468 229.993C628.644 229.823 626.859 229.331 625.783 227.7C625.034 226.566 624.729 225.498 625.022 224.143C625.479 222.032 626.793 221.05 628.479 219.934Z"/>
	<path fill="#040203" d="M393.533 219.896C394.128 219.875 394.663 219.836 395.263 219.913C396.812 220.113 398.08 221.085 398.952 222.34Q399.119 222.577 399.259 222.831Q399.398 223.085 399.509 223.353Q399.62 223.621 399.701 223.9Q399.782 224.178 399.832 224.464Q399.881 224.75 399.899 225.039Q399.917 225.328 399.903 225.618Q399.889 225.908 399.844 226.194Q399.798 226.48 399.721 226.76C399.197 228.732 397.853 229.376 396.171 230.178C395.521 230.169 395.161 230.176 394.485 230.113C392.732 229.951 391.401 229.408 390.401 227.885C389.634 226.716 389.574 225.7 389.838 224.36C390.262 222.216 391.807 221.017 393.533 219.896Z"/>
	<path fill="#040203" d="M428.829 792.369C429.38 792.434 429.941 792.52 430.477 792.669C431.936 793.073 433.303 794.193 434.04 795.511C434.753 796.788 434.846 798.554 434.285 799.921C433.617 801.549 432.349 802.114 430.887 802.887C430.258 802.842 429.616 802.809 428.992 802.713C427.232 802.443 425.923 801.96 424.948 800.368C424.249 799.225 424.176 798.053 424.55 796.795C425.251 794.433 426.775 793.527 428.829 792.369Z"/>
	<path fill="#040203" d="M593.085 791.96C593.631 791.962 593.947 791.948 594.518 792.029C596.179 792.263 597.825 792.95 598.758 794.434C599.48 795.58 599.496 796.911 599.211 798.191C598.755 800.244 597.093 801.512 595.453 802.616C593.477 802.412 591.585 802.037 590.223 800.46C589.198 799.274 588.996 798.052 589.234 796.543C589.586 794.307 591.346 793.131 593.085 791.96Z"/>
	<path fill="#040203" d="M694.127 694.921C694.632 694.914 694.748 694.902 695.31 694.957C697.046 695.128 698.66 695.675 699.675 697.204C700.433 698.347 700.472 699.669 700.21 700.969C699.778 703.111 698.188 704.318 696.492 705.479C694.46 705.233 692.01 704.794 690.752 702.965C689.98 701.842 689.687 700.683 690.015 699.335C690.565 697.079 692.303 696.068 694.127 694.921Z"/>
	<path fill="#040203" d="M290.53 674.943C291.1 674.947 291.421 674.934 292.017 675.016C293.776 675.255 295.409 676.017 296.378 677.574C297.107 678.748 297.125 679.926 296.853 681.239C296.387 683.485 294.678 684.418 292.874 685.518C292.72 685.513 292.565 685.518 292.412 685.504C290.437 685.331 288.382 684.546 287.257 682.82C286.523 681.694 286.36 680.304 286.701 679.017C287.274 676.854 288.739 676.013 290.53 674.943Z"/>
	<path fill="#040203" d="M398.63 755.016C399.154 755.11 399.476 755.154 400.007 755.323C401.586 755.823 402.789 756.758 403.399 758.34C403.918 759.685 403.75 761.067 403.193 762.358C402.256 764.533 400.803 765.209 398.699 766.073C398.019 765.904 397.951 765.905 397.224 765.633C395.722 765.072 394.465 763.97 393.825 762.49C393.216 761.081 393.256 759.504 393.99 758.136C395.02 756.218 396.656 755.598 398.63 755.016Z"/>
	<path fill="#040203" d="M656.498 725.01C658.362 724.913 660.176 724.992 661.714 726.178C662.769 726.991 663.33 728.132 663.411 729.457C663.576 732.16 661.877 733.954 660.051 735.672C659.868 735.677 659.685 735.69 659.502 735.688C657.525 735.67 655.845 735.19 654.489 733.703C653.43 732.541 652.966 731.085 653.176 729.511C653.478 727.232 654.769 726.272 656.498 725.01Z"/>
	<path fill="#040203" d="M774.571 654.409C776.656 654.765 778.479 655.293 779.918 656.93C780.988 658.147 781.567 659.586 781.232 661.231C780.808 663.312 779.393 664.217 777.725 665.238C777.478 665.271 777.232 665.315 776.984 665.338C775.273 665.5 773.678 665.31 772.373 664.085C771.196 662.981 770.792 661.484 770.937 659.923C771.193 657.18 772.526 656.021 774.571 654.409Z"/>
	<path fill="#040203" d="M622.42 755.007C622.851 754.967 623.282 754.92 623.715 754.907C625.583 754.854 627.391 755.356 628.737 756.711C629.878 757.86 630.252 759.111 630.171 760.699C630.059 762.899 628.635 764.203 627.134 765.598C624.885 765.52 623.122 765.353 621.361 763.808C620.205 762.794 619.521 761.385 619.612 759.82C619.734 757.731 620.989 756.377 622.42 755.007Z"/>
	<path fill="#040203" d="M732.243 671.413C732.483 671.462 732.725 671.504 732.963 671.561C734.828 672.005 736.633 672.867 737.553 674.644C738.197 675.885 738.146 677.157 737.8 678.471C737.226 680.655 735.46 681.806 733.671 682.947C731.524 682.545 729.335 681.703 728.076 679.799C727.326 678.664 727.14 677.351 727.504 676.045C728.204 673.53 730.116 672.593 732.243 671.413Z"/>
	<path fill="#040203" d="M518.341 220.813L520.216 221.162C522.581 224.248 514.985 231.857 513.628 235.156C511.36 240.666 516.04 244.541 515.763 249.479C515.677 251.021 514.73 251.602 513.73 252.63C512.235 252.273 511.477 252.079 510.497 250.836C507.729 247.324 507.672 240.768 508.207 236.472C509.034 229.833 513.299 224.802 518.341 220.813Z"/>
	<path fill="#040203" d="M239.422 450.489C240.914 450.459 242.553 450.283 243.984 450.759C244.738 451.01 244.525 450.964 244.859 451.736L244.418 452.737L244.923 452.484C245.735 474.57 245.047 496.92 245.081 519.032L245.099 548.649C245.088 553.616 245.359 558.816 244.898 563.75C244.809 564.698 244.586 565.228 244.099 566.023C242.583 565.996 240.907 566.225 239.651 565.254C238.827 562.175 238.655 454.765 239.422 450.489Z"/>
	<path fill="#040203" d="M178.802 450.562C180.553 450.464 182.156 450.221 183.801 450.963C185.184 454.141 184.293 547.731 184.272 559.801C193.447 559.927 210.901 558.858 219.064 560.224C219.971 561.797 219.842 563.509 219.9 565.273C215.038 566.67 185.603 565.64 178.489 565.551L178.538 490.383C178.555 477.232 177.828 463.656 178.802 450.562Z"/>
	<path fill="#040203" d="M432.592 451.522C438.036 451.252 470.193 450.445 473.049 452.034C473.613 452.348 473.969 453.222 474.088 453.816C474.35 455.125 473.961 456.107 473.286 457.182C470.449 458.192 443.024 457.471 437.739 457.468L437.756 500.01C442.706 500.016 458.888 499.191 462.386 499.975C463.534 500.232 464.515 501.021 464.942 502.146C465.428 503.426 465.13 504.023 464.655 505.189C461.738 507.16 442.807 506.266 437.912 506.374L437.961 540.75L438.028 560.012C444.009 560.059 471.541 559.008 474.309 560.753C475.253 561.348 475.802 561.916 475.775 563.093C475.742 564.526 475.4 564.821 474.375 565.622C471.261 566.133 436.32 566.405 435.472 566.112C434.113 565.644 433.412 565.078 432.749 563.799C432.149 562.642 432.001 561.122 431.959 559.848C431.816 555.538 432.111 551.112 432.102 546.784L432.008 511.015C431.985 501.779 430.796 457.555 432.592 451.522Z"/>
	<path fill="#040203" d="M799.057 452.211C805.486 452.093 833.754 451.315 838.061 453.116C839.278 453.626 839.62 454.006 840.093 455.205C839.882 455.794 839.812 456.093 839.419 456.644C839.112 457.073 838.053 458.006 837.573 458.243C835.287 459.37 806.229 458.558 801.609 458.56L801.762 501.315C809.277 501.488 823.472 500.197 829.978 501.577C831.558 501.912 832.706 502.358 833.617 503.769C833.628 505.089 833.471 505.557 832.711 506.636C829.035 509.023 807.698 507.998 801.817 508.012L801.822 536.875L801.832 559.301C809.477 559.655 817.29 559.523 824.945 559.434C828.518 559.392 832.348 558.928 835.879 559.439C837.144 559.622 838.358 559.921 839.274 560.873C839.767 561.384 839.903 562.19 839.782 562.887C839.574 564.085 838.938 564.551 838.061 565.23C834.42 566.007 799.939 566.017 797.529 564.825C796.378 564.256 795.754 563.293 795.374 562.104C794.248 558.586 795.067 508.372 795.062 499.115C795.06 493.982 794.313 456.354 795.821 454.136C796.767 452.744 797.567 452.688 799.057 452.211Z"/>
	<path fill="#040203" d="M386.703 450.176C389.356 450.151 391.958 450.303 394.545 450.93C399.879 452.223 408.104 455.386 411.063 460.195C411.175 461.563 411.284 462.039 410.359 463.186C409.936 463.711 408.854 464.524 408.208 464.362C406.866 464.028 405.536 462.76 404.412 461.967C399.893 458.783 394.859 456.652 389.246 456.568Q388.545 456.558 387.845 456.584Q387.145 456.61 386.447 456.67Q385.749 456.731 385.054 456.826Q384.36 456.921 383.672 457.052Q382.983 457.182 382.302 457.346Q381.621 457.51 380.949 457.708Q380.277 457.906 379.615 458.138Q378.954 458.37 378.305 458.634Q377.656 458.898 377.021 459.195Q376.386 459.491 375.767 459.819Q375.148 460.147 374.546 460.506Q373.944 460.864 373.36 461.252Q372.777 461.641 372.214 462.057Q371.65 462.474 371.109 462.919Q370.567 463.363 370.048 463.834Q369.529 464.306 369.035 464.802C357.664 476.005 354.992 493.551 354.949 508.795C354.907 523.928 357.954 541.269 369.119 552.41C374.554 557.833 381.347 560.795 389.092 560.666C396.938 560.535 403.101 557.425 408.436 551.868C408.59 539.835 408.457 527.782 408.462 515.746L397.093 515.925C394.977 515.974 390.869 516.502 389.129 515.202C388.604 514.81 388.522 513.861 388.476 513.267C388.378 512.012 388.82 511.197 389.541 510.245C396.991 508.98 406.756 509.869 414.425 510.103C415.085 524.65 414.712 539.777 414.314 554.342C413.972 554.911 413.638 555.455 413.232 555.981C408.673 561.886 400.355 565.742 393.074 566.742Q392.266 566.853 391.454 566.923Q390.641 566.993 389.827 567.022Q389.012 567.052 388.196 567.041Q387.381 567.03 386.567 566.978Q385.754 566.926 384.944 566.833Q384.133 566.741 383.329 566.608Q382.524 566.476 381.728 566.303Q380.931 566.13 380.143 565.918Q379.356 565.706 378.58 565.454Q377.805 565.203 377.042 564.913Q376.28 564.624 375.534 564.296Q374.787 563.969 374.057 563.605Q373.328 563.24 372.617 562.84Q371.907 562.44 371.217 562.005Q370.528 561.57 369.861 561.101Q369.194 560.632 368.551 560.13C356.579 550.848 351.087 534.857 349.41 520.314C347.25 501.581 349.41 479.245 361.582 464.013C368.065 455.9 376.396 451.26 386.703 450.176Z"/>
	<path fill="#040203" d="M272.084 450.361C273.033 450.4 274.346 450.325 275.242 450.602C276.78 451.077 277.507 453.04 278.161 454.374C284.568 467.452 289.982 481.165 296.051 494.425C304.611 513.127 313.771 531.613 322.009 550.453C322.019 538.95 321.219 455.112 322.63 451.26C323.059 450.948 323.231 450.776 323.792 450.613C325.183 450.209 326.138 450.651 327.215 451.419C327.852 452.691 328.164 453.763 328.25 455.192C328.444 458.413 328.098 461.714 328.099 464.949L328.133 489.386L328.14 565.018L327.219 565.775C325.959 565.931 324.669 566.178 323.433 565.78C322.486 565.475 322.317 565.186 321.759 564.339C320.257 562.057 319.206 558.924 318.046 556.406Q313.51 546.559 309.095 536.657C304.058 525.465 298.639 514.453 293.566 503.28C288.35 491.791 283.413 480.148 277.643 468.919C277.551 479.768 278.193 561.71 277.033 564.563C276.509 565.852 275.982 565.847 274.775 566.239C273.338 565.872 273.094 565.689 272.008 564.667C271.641 563.855 271.41 563.262 271.394 562.354C270.979 538.548 271.623 514.609 271.593 490.784C271.581 481.975 270.556 457.389 272.084 450.361Z"/>
	<path fill="#040203" d="M592.809 503.037C595.735 496.437 599.716 490.319 603.26 484.036Q610.404 471.182 617.302 458.194C618.775 455.451 620.217 452.221 623.406 451.265C624.814 451.646 625.037 451.826 626.084 452.855C627.343 458.187 626.4 466.983 626.393 472.702L626.355 518.127L626.379 548.739C626.38 553.663 626.849 559.089 626.088 563.93C625.244 565.029 624.787 565.531 623.494 566.144C622.796 566.093 622.68 566.202 622.137 565.73C620.608 564.401 620.177 561.577 619.983 559.694C619.001 550.167 619.855 539.829 619.853 530.217C619.849 512.654 619.546 495.117 619.701 477.547L619.663 467.353C610.822 483.192 602.88 500.246 592.484 515.111C588.94 509.795 586.002 503.932 582.866 498.352L565.566 467.347C566.396 487.132 565.859 507.144 565.862 526.952C565.863 534.114 565.774 541.282 565.843 548.444C565.881 552.374 566.252 556.36 565.946 560.281C565.788 562.315 565.556 563.744 564.287 565.364C563.129 565.783 562.634 565.925 561.448 565.259C560.313 564.621 559.815 563.711 559.664 562.465C559.071 557.564 559.514 552.092 559.51 547.132L559.499 516.066L559.466 475.999C559.46 469.121 559.058 461.99 559.555 455.147C559.686 453.348 559.875 452.748 561.03 451.351C561.987 451.498 563.139 451.589 564.04 451.933C565.803 452.607 589.996 498.033 592.809 503.037Z"/>
	<path fill="#040203" d="M671.313 452.056C673.18 452.256 674.633 452.501 675.798 454.117C676.019 454.423 703.324 555.744 704.372 561.481C704.535 562.375 704.745 563.065 704.471 563.956C704.3 564.513 703.636 564.957 703.103 565.115C702.297 565.354 701.388 565.356 700.635 564.99C699.24 564.312 698.605 563.199 698.056 561.812C696.816 558.678 696.468 554.998 695.622 551.723Q692.548 539.47 688.79 527.409L672.75 527.177Q664.29 527.04 655.83 527.144C654.881 531.182 646.648 562.543 645.734 563.487C644.467 564.795 643.207 565.214 641.441 565.383C640.265 564.898 640.269 564.944 639.703 563.813C639.961 558.318 644.285 546.016 645.945 539.845L659.183 489.298Q661.899 478.953 664.443 468.565C665.493 464.224 666.196 458.487 668.137 454.477C668.847 453.009 669.894 452.618 671.313 452.056Z"/>
	<path fill="#FEFEFE" d="M671.885 463.746C674.618 469.665 675.885 478.478 677.532 484.945C680.648 497.178 684.059 509.288 687.389 521.46C682.167 521.645 676.929 521.651 671.704 521.732Q664.309 521.773 656.918 521.544C661.274 502.13 667.75 483.191 671.885 463.746Z"/>
	<path fill="#040203" d="M490.6 451.535C500.373 451.429 512.522 449.912 521.701 453.465C528.436 456.072 533.644 461.258 536.519 467.84C539.765 475.273 540.065 484.126 537.016 491.667C533.768 499.698 527.811 504.529 520.032 507.785C526.419 523.526 535.153 538.793 542.131 554.381C543.344 557.09 545.474 560.054 546.164 562.87C546.446 564.023 546.297 564.195 545.741 565.169C544.444 565.59 543.706 565.601 542.398 565.142C538.27 563.695 531.917 547.462 529.835 543.171C524.895 531.748 519.23 520.4 513.162 509.537L495.852 509.734L495.748 543.139C495.784 548.836 497.187 557.937 495.774 563.265C495.363 564.814 494.766 565.32 493.387 566.047C492.211 565.929 491.565 565.924 490.665 565.114C488.885 559.648 489.906 517.774 489.896 508.678C489.875 490.728 489.131 472.437 489.941 454.521C489.991 453.41 490.19 452.569 490.6 451.535Z"/>
	<path fill="#FEFEFE" d="M495.913 457.517C505.442 457.416 516.868 456.155 524.701 462.671C529.289 466.488 531.923 472.167 532.463 478.062C533.135 485.395 530.789 491.381 526.168 496.918C517.115 504.752 507.056 503.735 495.9 503.595L495.913 457.517Z"/>
	<path fill="#040203" d="M722.568 452.556C735.092 451.89 754.341 450.991 764.542 459.485C774.487 467.767 777.367 481.765 778.614 493.992C780.597 513.43 780.452 539.192 767.422 555.151C764.397 558.408 760.907 561.062 756.749 562.713C750.803 565.072 727.558 566.615 721.943 564.091C721.727 563.757 721.582 563.583 721.496 563.151C720.741 559.34 721.325 554.357 721.335 550.412L721.422 521.498L721.382 478.195C721.362 470.817 720.994 463.21 721.419 455.85C721.498 454.476 721.706 453.68 722.568 452.556Z"/>
	<path fill="#FEFEFE" d="M727.282 458.948C737.43 458.868 749.062 457.423 757.928 463.301C765.547 468.352 769.097 478.444 770.746 487.029C774.555 506.857 774.32 532.377 762.761 549.582C761.865 550.671 760.923 551.754 759.892 552.717C751.481 560.584 737.929 558.956 727.354 558.85C726.694 546.63 727.191 534.14 727.196 521.887L727.282 458.948Z"/>
	<path fill="#040203" d="M617.647 629.247L898.405 629L898.752 635.878C901.511 635.892 904.29 635.882 907.046 636.027C914.831 636.438 922.29 638.769 927.519 644.912C931.545 649.641 933.58 656.258 933.016 662.437C932.568 667.338 929.399 672.496 925.528 675.463Q925.158 675.747 924.775 676.013Q924.392 676.278 923.995 676.523Q923.599 676.769 923.191 676.994Q922.783 677.22 922.364 677.424Q921.945 677.629 921.516 677.812Q921.087 677.995 920.65 678.157Q920.213 678.318 919.767 678.457Q919.323 678.596 918.871 678.713Q918.42 678.829 917.963 678.923Q917.506 679.017 917.045 679.088Q916.585 679.158 916.121 679.206Q915.657 679.253 915.191 679.277Q914.726 679.301 914.259 679.301Q913.793 679.302 913.328 679.279Q912.862 679.256 912.398 679.209Q911.934 679.163 911.473 679.093C906.738 678.375 902.252 675.797 899.488 671.849C897.72 669.324 896.717 666.251 897.335 663.171C897.831 660.703 899.589 658.022 901.732 656.671C903.788 655.374 906.016 654.786 908.396 655.241C909.433 656.214 909.566 656.333 909.909 657.702C908.797 660.953 903.895 661.295 902.408 664.282C901.939 665.225 901.935 666.011 902.25 666.988C903.011 669.349 906.196 671.929 908.346 672.996C911.156 674.391 914.245 674.904 917.243 673.887C921.492 672.447 924.944 670.067 926.866 665.885C928.746 661.795 928.267 657.376 926.588 653.307C924.512 648.276 920.47 644.754 915.445 642.811C895.713 635.18 849.512 650.127 830.182 657.217C811.292 664.146 792.625 672.466 774.38 680.941C772.286 687.701 771.403 694.968 768.333 701.393C766.97 704.245 762.776 706.832 762.47 709.815C762.389 710.604 762.368 710.636 762.992 711.223C765.238 713.341 769.358 715.077 771.984 716.889C777.601 720.766 788.499 729.725 792.947 734.796C794.523 736.592 795.815 738.226 795.69 740.711C794.632 743.271 792.832 744.562 790.473 745.922C781.73 750.961 768.366 755.389 758.187 755.362C753.899 755.351 749.581 754.44 745.456 753.345C749.852 768.231 752.481 780.989 748.883 796.445C748.251 799.157 747.054 803.522 744.255 804.808C742.85 805.453 741.961 805.288 740.57 804.727C735.498 802.681 722.764 792.799 718.248 789.108C714.745 786.244 710.949 781.83 706.808 779.997C703.744 781.123 697.975 788.637 695.059 791.214C690.675 795.089 675.604 808.68 670.568 808.361C669.197 807.6 668.534 806.668 667.787 805.325C664.383 799.199 660.321 784.512 660.903 777.666C661.262 773.447 662.821 768.988 663.916 764.893C658.268 767.234 653.614 766.873 647.699 767.627C646.383 767.795 645.008 768.002 643.873 768.733C639.446 771.581 625.436 787.422 621.744 792.158C622.548 792.065 623.364 791.976 624.174 792.066C625.436 792.206 626.519 792.827 627.209 793.913C627.913 795.022 628.117 796.486 627.862 797.764C627.594 799.108 626.85 800.328 625.626 801.008C624.224 801.787 622.41 801.834 620.974 801.129C619.617 800.464 619.177 798.842 618.657 797.535C618.316 796.679 618.625 796.99 617.802 796.614C591.173 826.779 569.115 860.982 549.544 896.029C544.652 904.788 539.102 913.681 535.31 922.98C532.796 929.146 531.204 935.494 529.955 942.02L515.992 942.361C520.919 931.681 524.53 920.442 529.914 909.968C532.659 904.628 535.851 899.522 538.75 894.266C543.1 886.38 547.22 878.372 551.868 870.653C582.447 819.878 622.637 769.782 669.026 732.608C689.37 716.305 712.404 701.763 735.251 689.292C744.122 684.449 753.613 680.754 762.732 676.411C774.411 670.849 785.854 664.768 797.749 659.657C816.922 651.42 836.846 645.037 856.678 638.633C845.992 638.819 835.329 638.537 824.646 638.424C823.29 638.41 820.75 638.179 819.76 639.147C820.819 640.379 821.566 641.585 821.345 643.29C821.174 644.61 820.436 645.903 819.336 646.667C818.343 647.357 817.058 647.608 815.894 647.237C814.331 646.74 812.758 645.126 812.248 643.569C811.718 641.946 812.181 640.885 812.895 639.407C812.993 639.204 813.098 639.003 813.199 638.801L690.559 639.007C691.897 648.747 693.887 658.328 694.983 668.12C646.794 685.911 595.569 720.967 560.57 758.385C556.92 762.288 548.726 769.829 546.496 774.422C543.665 780.25 541.901 789.854 538.016 794.537C532.889 797.398 492.747 797.269 486.032 795.629C485.291 795.448 484.065 795.161 483.479 794.635C480.665 792.111 477.682 776.982 474.378 771.669C474.268 771.492 474.155 771.318 474.043 771.142C467.756 764.941 462.216 758.03 455.958 751.799C431.518 727.469 404.35 705.568 373.892 689.165C364.927 684.337 355.595 679.885 346.251 675.846C340.197 673.23 333.705 670.994 327.95 667.8C327.761 667.695 327.574 667.585 327.386 667.478C328.273 658.125 330.806 648.463 332.461 639.175C304.536 638.801 276.55 639.383 248.615 639.365L222.656 639.337C218.415 639.334 213.202 638.823 209.075 639.646C209.463 641.471 210.479 643.826 209.499 645.539C209.006 646.401 207.926 646.988 207.011 647.273C205.468 647.753 203.696 647.674 202.294 646.824C201.208 646.165 200.411 645.045 200.232 643.777C200.076 642.676 200.317 641.771 200.936 640.879C201.102 640.64 201.28 640.41 201.452 640.175L201.105 639.69C194.239 638.428 180.745 639.402 173.087 639.419C184.824 644.762 197.686 648.458 209.748 653.138Q234.109 662.773 257.723 674.116Q281.337 685.46 304.084 698.454C313.845 703.975 323.883 709.271 333.092 715.69C349.282 726.973 363.249 739.801 377.492 753.348Q381.974 757.532 386.36 761.817Q390.746 766.101 395.034 770.483Q399.322 774.866 403.51 779.344Q407.698 783.822 411.784 788.393Q415.87 792.965 419.851 797.628Q423.833 802.29 427.708 807.042Q431.583 811.793 435.35 816.631Q439.117 821.469 442.773 826.391Q446.43 831.312 449.974 836.315Q453.519 841.318 456.949 846.4Q460.38 851.482 463.694 856.64Q467.009 861.798 470.206 867.03Q473.404 872.261 476.482 877.564Q479.561 882.866 482.519 888.237Q485.476 893.608 488.312 899.044Q491.148 904.48 493.86 909.979C499 920.446 502.179 931.667 506.88 942.326C502.377 942.434 497.859 942.364 493.354 942.371C491.689 935.137 490.142 927.827 487.36 920.921C483.299 910.845 477.268 901.174 471.969 891.697C446.665 846.444 414.814 801.1 377.797 764.626C373.256 765.633 368.96 766.543 364.295 766.753C364.103 770.652 363.797 774.475 363.107 778.321C362.186 783.451 357.683 801.366 354.845 804.976C353.875 806.211 352.974 806.739 351.388 806.914C348.153 805.82 345.596 802.64 342.744 800.765C340.609 799.36 338.075 798.537 335.839 797.282C328.761 793.309 321.326 786.726 316.917 779.945Q316.254 780.721 315.575 781.484C310.437 787.249 286.194 804.892 278.506 804.43C277.055 804.343 276.882 804.113 275.932 803.127C274.926 799.813 275.056 796.251 274.784 792.816C273.704 779.178 273.086 766.726 275.214 753.111C260.561 751.941 251.715 748.295 238.901 741.366C236.285 739.952 233.557 738.635 232.651 735.608C232.859 734.414 232.948 733.983 233.768 733.035C235.767 730.725 238.432 728.764 240.692 726.676C246.874 720.967 252.887 715.237 259.478 709.989C251.325 700.342 246.955 690.237 244.291 677.929L243.621 677.575C218.83 664.571 191.237 654.997 164.375 647.386C156.602 645.184 148.796 642.76 140.805 641.493C132.301 640.144 122.244 639.378 113.912 642.061C108.015 643.96 103.106 647.833 100.396 653.464C98.5176 657.368 97.9828 661.909 99.5805 666.004C100.855 669.271 103.235 671.791 106.511 673.082C110 674.457 114.292 674.512 117.703 672.891C120.159 671.723 123.218 669.293 123.914 666.511C125.186 661.424 119.005 661.6 117.342 658.259C117.408 658.072 117.458 657.878 117.541 657.698C118.073 656.542 119.175 655.65 120.389 655.276C121.81 654.837 123.322 655.232 124.496 656.101C127.071 658.008 128.826 661.387 129.113 664.551C129.416 667.887 128.175 671.32 125.881 673.75C122.594 677.234 117.479 679.304 112.729 679.436Q111.815 679.462 110.904 679.398Q109.992 679.334 109.091 679.181Q108.19 679.027 107.309 678.786Q106.427 678.544 105.574 678.217Q104.721 677.889 103.904 677.479Q103.087 677.069 102.315 676.581Q101.542 676.092 100.822 675.53Q100.101 674.968 99.4399 674.337C95.5727 670.687 93.5334 665.975 93.4984 660.658C93.4575 654.454 95.911 648.016 100.332 643.63C107.918 636.105 118.919 635.377 128.967 635.378L129.47 629.955L617.647 629.247Z"/>
	<path fill="#FEFEFE" d="M350.966 743.148C357.503 744.128 365.112 752.344 369.935 756.936C371.001 757.951 372.25 758.688 372.289 760.211C371.474 760.566 370.646 760.931 369.792 761.185C367.214 761.955 364.257 761.115 361.992 759.824C355.808 756.299 352.92 749.618 350.966 743.148Z"/>
	<path fill="#FEFEFE" d="M672.713 742.424C674.67 743.073 676.539 743.925 678.428 744.747C677.91 745.882 677.394 747.075 676.748 748.146C672.492 755.208 663.476 760.936 655.626 762.921C653.825 763.132 652.246 763.211 650.438 763.042L650.171 762.53C656.038 754.679 664.611 747.789 672.713 742.424Z"/>
	<path fill="#FEFEFE" d="M767.654 684.431L768.135 684.589C768.742 687.785 765.016 694.825 763.47 697.746C759.917 704.461 746.868 709.817 739.983 711.866C738.532 712.299 736.757 712.884 735.326 712.144L736.132 710.408C735.882 707.85 731.197 707.443 729.287 705.658C729.623 705.733 729.959 705.806 730.299 705.855C732.798 706.213 736.753 704.923 738.715 703.29C739.589 702.563 739.35 702.969 739.45 701.846C739.298 701.773 739.155 701.679 738.995 701.628C736.344 700.775 733.316 702.811 731.048 703.996C737.796 695.867 757.65 689.105 767.654 684.431Z"/>
	<path fill="#FEFEFE" d="M252.956 682.044C258.708 683.624 293.986 701.208 296.8 705.375C295.852 706.719 294.758 706.561 293.663 707.752C289.329 707.287 283.669 706.345 280.357 703.384C275.43 704.44 270.661 705.829 265.884 707.421C264.522 706.284 263.172 705.133 261.912 703.882C255.499 697.521 252.982 691.073 252.956 682.044Z"/>
	<path fill="#FEFEFE" d="M302.428 709.117C305.002 709.582 308.333 712.308 310.172 714.146C311.404 715.377 311.954 715.797 313.709 716.199C314.815 716.452 315.443 716.428 316.279 717.261L316.001 717.957C314.973 718.052 314.034 718.089 313.001 718.012L311.997 717.932L311.105 719.316L310.331 719.286L309.771 717.727C308.891 718.358 308.589 718.653 308.24 719.685C308.953 720.856 309.461 720.881 310.685 721.479C313.793 722.999 313.472 727.343 314.676 730.398C315.116 731.514 315.339 732.184 316.491 732.655L317.354 730.774L318.035 730.53L319.29 732.08C320.934 732.753 322.611 732.726 324.362 732.64C327.07 732.506 331.917 732.24 333.773 730.207C333.667 729.337 333.586 728.794 333.772 727.927C337.355 729.644 340.958 733.08 344.069 735.617C341.871 738.45 339.548 740.446 336.762 742.655L336.237 743.068C336.094 743.837 335.953 744.476 335.685 745.216L335.164 744.277L333.199 743.315C330.977 743.833 331.347 746.252 329.222 747.52C327.575 746.973 328.35 745.687 326.951 744.998C326.038 745.781 325.284 746.61 324.489 747.508L323.808 747.311L323.633 745.976L323.01 745.523C321.465 745.846 321.087 746.563 320.008 747.681C318.81 747.497 318.257 746.386 317.479 745.485C315.569 744.978 314.097 746.502 312.071 746.371C311.048 745.715 310.637 745.745 310.237 744.553C310.736 743.664 311.134 742.928 311.361 741.929L310.501 741.426C309.396 741.813 308.578 742.085 307.39 742.117C306.483 740.994 306.786 740.292 306.808 738.902C305.299 737.46 302.953 738.294 301.353 736.93C300.308 736.04 299.443 734.357 299.447 732.986C300.224 732.177 300.951 731.551 301.334 730.474L300.491 729.853C299.44 729.948 298.651 730.026 297.631 729.723C297.652 728.56 297.588 728.952 297.797 727.929C297.842 727.71 297.894 727.493 297.943 727.275L296.793 726.236C296.57 725.28 296.466 725.506 296.806 724.645C297.72 722.328 300.427 721.674 302.552 720.827C300.857 720.42 299.094 721.393 297.363 720.944L297.478 720.114C298.305 719.9 298.619 719.779 299.351 719.279Q298.494 717.979 297.6 716.703C298.451 714.752 301.711 715.778 303.292 714.155C302.66 713.383 302.01 712.688 301.614 711.762C301.294 711.013 302.101 709.851 302.428 709.117Z"/>
	<path fill="#FEFEFE" d="M723.152 707.322C724.322 707.625 725.142 708.094 726.094 708.843C732.665 714.012 730.907 724.841 731.601 732.3C724.681 738.542 714.287 746.861 705.339 749.608C699.729 748.29 695.689 745.798 690.853 742.828C687.858 741.477 684.875 740.997 681.659 740.432L678.216 737.207C681.348 734.614 684.902 732.465 688.138 729.99C689.9 731.086 691.342 731.885 693.409 732.218C693.676 732.261 693.944 732.294 694.21 732.339C695.156 732.497 696.089 732.687 697.043 732.799C701.931 733.373 706.316 731.425 710.041 728.391C716.291 723.299 719.054 719.395 720.024 711.33C720.252 709.434 721.25 708.779 722.667 707.688C722.828 707.564 722.99 707.444 723.152 707.322Z"/>
	<path fill="#FEFEFE" d="M690.151 748.255L690.873 748.702C692.161 751.382 690.167 762.642 689.873 766.145C687.766 769.168 686.616 771.562 685.927 775.196L686.305 775.269C691.176 768.186 693.674 761.002 695.909 752.807C697.645 760.636 697.219 767.86 696.264 775.779C696.73 774.689 697.188 773.602 697.763 772.563C699.109 770.133 699.903 767.508 700.959 764.941C701.017 764.799 701.068 764.655 701.122 764.512L701.862 765.2C701.93 770.324 699.385 777.993 696.528 782.213C695.18 784.205 693.503 785.94 691.667 787.486C689.168 789.591 675.118 799.847 672.773 800.308C671.301 799.571 671.238 798.98 670.504 797.545C666.871 788.596 664.021 778.164 667.4 768.672C669.879 761.712 677.992 752.105 684.604 748.838C682.283 751.443 677.433 755.763 677.205 759.284L677.737 759.837C680.01 757.858 681.792 755.775 683.643 753.406C682.082 761.175 679.089 768.69 677.87 776.506C677.555 778.525 677.064 781.158 678.303 782.882C678.43 782.769 678.567 782.667 678.683 782.543C680.35 780.763 688.926 760.833 689.665 757.954C690.407 755.061 690.093 751.252 690.151 748.255Z"/>
	<path fill="#FEFEFE" d="M754.319 713.965C754.298 714.252 754.137 715.794 754.282 716.078C754.841 717.17 764.859 718.966 766.965 720.006C774.876 723.914 782.621 732.742 788.312 739.404C779.355 746.177 763.824 751.958 752.459 750.239C747.315 749.461 742.889 746.467 739.825 742.327L739.923 741.712L741.246 741.771C741.379 740.759 741.243 741.291 741.73 740.195Q742.584 741.233 743.461 742.251C744.336 741.963 744.072 742.082 744.788 741.745C744.935 741.676 745.08 741.604 745.226 741.533C746.509 742.135 747.49 742.431 748.89 742.659L749.157 742.272C748.081 741.445 747 740.667 746.095 739.646L746.858 738.94C748.439 738.753 748.772 738.681 750.212 739.309L750.273 738.531C747.63 734.301 742.788 735.931 739.003 733.703C738.97 733.449 738.907 733.198 738.905 732.943C738.903 732.683 738.962 732.426 738.99 732.168C737.779 731.847 736.586 731.494 735.388 731.129L734.97 730.036L735.59 728.661C739.253 726.195 755.367 731.038 760.584 731.386L761.386 731.433C756.976 728.548 750.697 724.619 745.32 724.578L744.888 725.691L744.392 725.849C743.598 724.827 744.02 725.275 743.149 724.483C742.164 724.579 741.265 724.629 740.278 724.554C739.161 723.546 739.069 723.2 738.583 721.754C739.366 719.423 750.724 718.23 752.645 716.521C753.237 715.996 753.861 714.665 754.319 713.965Z"/>
	<path fill="#FEFEFE" d="M344.805 746.97C345.382 747.167 345.906 747.35 346.436 747.66C351.841 750.825 356.016 755.818 357.742 761.878C360.892 772.933 355.864 788.403 350.551 798.189C344.189 795.849 337.615 792.307 332.425 787.916C322.212 779.277 320.791 766.494 319.696 753.911L320.317 753.238C322.57 755.899 320.777 763.801 323.959 767.304C324.098 767.457 324.27 767.578 324.426 767.715C324.62 763.789 324.26 757.826 326.137 754.378L326.941 754.211L327.715 754.847C329.451 758.941 328.691 764.435 328.552 768.836C328.997 769.635 329.434 770.501 329.984 771.231C330.684 772.159 331.212 772.439 332.328 772.603C335.617 768.232 331.212 758.428 333.021 753.714L333.903 754.116C336.717 757.474 344.431 772.575 345.663 777.043C345.978 778.185 346.264 779.019 346.856 780.045L347.399 779.953C349.13 772.719 341.437 760.022 341.234 752.049C341.205 750.905 341.049 751.341 341.807 750.56C343.72 751.802 345.304 757.205 347.221 759.594L347.678 760.154L344.805 746.97Z"/>
	<path fill="#FEFEFE" d="M292.654 746.022C292.952 747.458 288.291 754.999 287.488 757.259C290.337 755.125 292.874 752.634 295.958 750.823L296.52 751.222C297.684 758.038 289.78 766.419 288.731 773.694C288.523 775.136 288.609 776.405 289.499 777.611L290.188 777.649C294.12 774.29 296.205 763.175 299.27 758.117C300.394 756.263 301.631 754.085 303.872 753.549C311.248 755.511 304.857 768.632 307.77 773.177C307.941 773.03 308.12 772.893 308.282 772.736C312.487 768.659 311.424 760.933 311.283 755.6C311.714 755.318 311.407 755.479 312.29 755.345C314.627 757.352 315.277 759.616 315.64 762.626C316.263 767.784 315.345 773.698 312.022 777.847C308.708 781.985 286.397 797.397 282.149 797.417C281.582 797.419 281.581 797.359 281.236 796.859C277.842 791.948 278.1 767.535 279.269 761.57C280.638 754.587 287.089 749.798 292.654 746.022Z"/>
	<path fill="#FEFEFE" d="M274.506 711.624C279.138 711.04 284.877 711.653 289.414 712.789C292.465 713.553 290.378 713.316 291.59 715.308L291.757 714.603L291.906 714.991C289.981 715.905 289.161 715.419 287.122 715.421C285.911 715.422 285.935 715.501 285.098 716.326L285.546 717.176C286.902 717.899 287.702 718.046 289.242 718.043C289.4 718.043 289.559 718.038 289.717 718.036L289.787 719.179C288.39 720.122 285.535 719.567 283.849 719.552L283.647 720.213C284.386 721.312 284.926 721.574 286.123 722.007C286.418 722.113 287.291 722.412 287.587 722.544C288.781 723.076 289.265 723.441 289.74 724.642C289.669 724.791 289.618 724.951 289.527 725.088C285.584 731.031 268.574 728.958 263.302 730.459C262.172 730.781 262.019 730.712 261.441 731.783C266.592 737.735 284.217 730.346 290.835 730.939L290.418 731.528C289.001 731.895 287.854 732.239 286.584 733.01L286.643 733.722C287.937 733.925 288.876 733.693 290.143 733.46L290.349 733.743C289.217 734.237 288.053 734.568 287.214 735.495L288.403 737.087L287.98 737.912C286.538 738.35 285.246 738.632 283.743 738.777C281.82 738.352 279.618 737.62 277.787 738.611L278.011 739.326C278.6 739.598 278.889 739.75 279.462 739.957C285.166 742.022 290.96 740.043 296.189 737.774C295.995 737.998 295.804 738.225 295.608 738.447Q295.151 738.968 294.667 739.465Q294.184 739.963 293.677 740.435Q293.17 740.908 292.639 741.354Q292.109 741.8 291.557 742.22Q291.004 742.639 290.432 743.03Q289.859 743.421 289.268 743.782Q288.676 744.144 288.067 744.476Q287.459 744.807 286.834 745.108Q286.209 745.409 285.57 745.678Q284.931 745.947 284.279 746.183Q283.628 746.42 282.965 746.623Q282.302 746.827 281.63 746.997Q280.958 747.167 280.278 747.303Q279.598 747.439 278.912 747.54Q278.227 747.642 277.537 747.709Q276.846 747.776 276.154 747.809C264.007 748.277 249.179 743.68 240.244 735.277C248.416 725.11 261.537 714.173 274.506 711.624Z"/>
	<path fill="#040203" d="M274.033 715.068C275.45 714.897 276.634 714.755 278.056 715.043C277.117 716.438 274.099 717.423 272.532 718.197C271.217 719.006 270.431 719.739 268.867 719.402C268.64 718.189 268.717 718.218 269.385 717.234C270.473 715.632 272.277 715.439 274.033 715.068Z"/>
	<path fill="#FEFEFE" d="M729.38 739.988C733.917 743.093 737.386 747.939 739.722 752.855C746.71 767.559 747.369 783.117 741.856 798.32C732.493 793.656 721.279 786.34 714.297 778.583C707.244 770.749 706.055 762.635 706.591 752.53C708.203 755.961 708.502 759.176 710.727 762.434L711.319 762.338C711.713 760.717 711.318 759.367 710.972 757.781C710.906 756.192 710.877 754.737 711.119 753.163Q712.215 753.826 713.302 754.505L714.135 754.107C714.437 752.992 714.471 752.531 715.309 751.694C718.612 755.513 719.561 766.653 723.938 769.128C725.73 765.899 722.173 754.975 721.317 750.998C723.291 755.176 729.343 771.697 731.619 773.725C731.665 773.569 731.726 773.417 731.756 773.257C732.455 769.522 726.77 749.487 724.718 746.138C723.93 746.208 723.332 746.206 722.527 746.141C722.991 744.913 723.62 744.844 724.713 744.214C728.262 745.046 732.77 752.178 734.982 755.144C734.65 751.834 734.016 749.521 732.674 746.454C733.503 745.622 733.33 746.085 733.427 745.178C732.527 744.458 731.588 743.747 730.747 742.957C729.62 741.898 729.361 741.529 729.38 739.988Z"/>
	<path fill="#FEFEFE" d="M338.043 639.118L684.584 638.971C686.407 647.633 688.308 656.359 689.213 665.174C645.097 681.495 603.908 709.249 569.832 741.505C564.472 746.579 559.488 752.072 554.376 757.394C562.447 741.044 573.037 725.082 583.428 710.119C585.26 707.613 586.984 705.147 588.504 702.437C570.125 721.5 555.524 741.645 544.499 765.798C540.9 773.684 538.848 782.937 534.59 790.33C534.498 790.491 534.399 790.649 534.304 790.809C525.206 792.203 496.206 791.85 486.88 790.92C484.501 785.02 482.907 778.827 480.561 772.894C469.717 745.463 455.723 723.221 434.895 702.232C437.957 707.207 441.496 711.903 444.704 716.787C453.185 729.698 461.558 743.28 468.308 757.186C432.496 716.744 384.065 683.457 333.343 664.859C334.297 656.256 336.364 647.612 338.043 639.118Z"/>
	<path fill="#040203" d="M492.878 82.4674C497.264 82.9604 501.531 83.0639 505.939 83.0585C502.968 95.7323 496.793 107.895 490.835 119.378C473.008 153.74 451.253 184.901 427.768 215.571C420.874 224.575 413.187 233.033 406.506 242.176C406.445 245.014 405.618 252.562 407.789 254.401C409.372 255.74 411.63 256.35 413.044 257.919C414.436 259.464 415.563 261.465 416.693 263.213C420.092 262.027 423.721 260.479 427.376 260.636C432.116 260.839 432.457 265.698 435.266 268.519C443.329 276.614 444.409 268.053 449.945 268.382C455.596 268.718 460.538 275.873 463.996 279.794C467.518 278.521 471.523 276.617 475.313 276.752C480.208 276.927 483.658 281.732 486.661 285.026C490.79 284.031 494.771 281.549 499.073 281.545C504.027 281.541 508.026 286.214 511.337 289.328C514.523 286.431 517.943 283.003 522.054 281.502C527.201 279.623 528.525 282.772 532.828 284.309C537.403 285.944 542.331 278.571 546.941 276.412L547.616 276.102C551.132 277.088 554.307 278.415 557.602 279.981C561.601 277.252 565.261 272.835 569.618 270.844C574.978 268.396 579.097 274.669 584.067 272.537C589.443 270.232 589.288 264.829 596.724 262.844C599.476 263.963 601.769 265.302 604.235 266.946C609.665 264.009 614.086 259.051 618.479 254.77C618.733 251.15 618.579 247.522 618.494 243.898C607.241 230.764 595.826 217.743 585.316 203.997C571.102 185.406 558.459 165.889 546.401 145.852C539.566 134.493 532.762 123.015 526.969 111.078C522.644 102.166 519.898 92.3916 515.786 83.3218L529.142 82.9689C532.39 100.774 540.784 114.956 549.507 130.438C567.347 162.1 587.902 191.217 611.058 219.211C622.744 233.338 634.822 247.164 648.113 259.809C655.452 255.962 661.144 257.377 668.841 258.791C668.185 256.17 667.656 253.435 667.421 250.743C667.157 247.719 667.251 244.76 667.633 241.751C668.064 238.362 672.531 219.726 674.037 218.093C674.942 217.112 676.058 216.596 677.396 216.623C680.022 216.676 682.768 218.298 685.064 219.458C697.436 225.707 703.218 231.667 712.576 241.715C714.892 237.877 717.498 234.102 721.03 231.276C726.087 227.229 745.116 215.216 750.898 215.8C751.954 216.448 752.622 217.234 753.029 218.41C759.377 236.719 755.99 257.171 747.115 273.912C751.281 272.815 755.891 271.74 760.218 271.973C766.131 272.292 791.302 282.36 794.869 287.346C795.385 288.067 795.777 288.586 795.56 289.469C793.86 296.416 775.535 307.362 769.757 311.278C771.369 314.935 773.793 318.252 775.924 321.624C781.798 330.915 784.628 338.817 785.585 349.741Q817.838 362.917 851.014 373.559C858.572 375.949 866.293 378.66 874.016 380.419C885.292 382.987 900.455 385.564 911.686 382.245C917.381 380.563 922.003 377.062 924.746 371.746C926.747 367.867 927.386 363.288 925.903 359.119C924.592 355.432 921.704 352.5 918.152 350.911C915.038 349.518 911.381 349.125 908.161 350.402C905.144 351.599 902.505 354.339 901.372 357.381C900.676 359.252 900.76 360.7 901.59 362.482C902.821 363.695 903.672 363.564 905.236 363.878C906.342 364.1 907.363 364.279 907.802 365.478C908.285 366.8 907.962 367.302 907.304 368.374C906.019 369.053 904.98 369.293 903.538 369.159C900.849 368.909 898.349 367.456 896.651 365.383C895.215 363.629 894.418 361.398 894.77 359.125C895.464 354.638 899.354 350.198 903.013 347.754C907.118 345.011 912.026 344.151 916.835 345.224C922.769 346.547 927.008 350.337 930.222 355.302C930.934 357.008 931.4 358.697 931.694 360.526C932.652 366.472 931.159 372.316 927.579 377.15C919.18 388.489 912.051 386.497 899.99 388.465C898.503 389.742 899.641 391.202 898.51 392.828C891.289 393.315 883.865 393.012 876.624 392.98L832.34 392.58L689.294 392.157L300.75 393.34Q253.395 393.389 206.044 393.983C180.506 394.049 154.966 393.764 129.436 394.54C129.22 392.634 129.138 390.696 128.999 388.781C125.076 388.786 121.119 388.864 117.213 388.433C109.468 387.578 101.839 384.619 96.9746 378.23Q96.6553 377.807 96.3573 377.368Q96.0593 376.93 95.7833 376.477Q95.5074 376.025 95.2542 375.559Q95.0009 375.093 94.7711 374.616Q94.5412 374.138 94.3352 373.649Q94.1292 373.161 93.9477 372.663Q93.7661 372.165 93.6094 371.658Q93.4527 371.152 93.3212 370.638Q93.1898 370.125 93.0839 369.605Q92.978 369.086 92.8979 368.562Q92.8178 368.038 92.7637 367.51Q92.7096 366.983 92.6817 366.454Q92.6538 365.924 92.6521 365.394Q92.6504 364.864 92.6749 364.334Q92.6994 363.805 92.7501 363.277Q92.8008 362.75 92.8775 362.225C93.7334 356.572 96.7028 351.27 101.447 347.991C105.815 344.974 111.187 344.211 116.331 345.299C120.87 346.259 124.861 348.938 127.294 352.917C129.238 356.098 130.006 360.098 128.938 363.717C128.352 365.701 127.251 367.432 125.365 368.388C123.149 369.511 120.684 369.166 118.413 368.437C116.991 367.981 117.114 367.909 116.417 366.572C118.294 364.4 121.824 363.411 123.167 360.746C123.817 359.455 123.893 358.526 123.463 357.146C122.708 354.723 119.686 352.123 117.489 351.023C114.404 349.478 110.872 349.478 107.686 350.72C103.901 352.196 100.763 355.397 99.1454 359.099Q98.8424 359.797 98.6114 360.522Q98.3803 361.247 98.2234 361.992Q98.0666 362.737 97.9855 363.494Q97.9045 364.25 97.9001 365.012Q97.8958 365.773 97.9681 366.53Q98.0404 367.288 98.1887 368.034Q98.3369 368.781 98.5597 369.509Q98.7824 370.236 99.0773 370.938C101.327 376.41 106.345 379.969 111.688 382.081C137.41 392.248 213.237 359.794 239.577 348.573C241.148 334.197 248.561 322.253 252.301 308.614C240.073 302.339 232.983 297.127 223.236 287.41Q225.676 283.813 228.908 280.908C240.144 270.869 258.008 265.795 272.846 266.586C270.862 259.435 269.658 252.219 269.561 244.782C269.502 240.21 269.681 221.575 272.833 218.834C273.329 218.403 273.893 218.453 274.512 218.47C278.009 218.564 282.274 220.623 285.464 221.962C299.373 227.801 307.167 232.849 317.204 244C322.634 234.367 337.317 220.2 347.532 216.002C349.325 215.266 350.384 215.29 352.136 216.083C358.857 224.181 360.554 244.602 360.524 254.978C368.893 253.114 371.138 252.528 378.949 256.363C379.149 256.234 379.351 256.109 379.548 255.976C386.08 251.552 398.517 235.399 404.065 228.646C430.432 196.548 452.184 167.583 472.544 131.151C481.834 114.525 489.424 101.693 492.878 82.4674Z"/>
	<path fill="#FEFEFE" d="M452.647 294.329C452.817 294.343 452.989 294.343 453.158 294.371C455.203 294.71 458.998 296.587 460.245 298.181L459.375 298.938C458.479 299.602 457.798 300.065 456.727 300.392C456.156 299.952 455.813 299.601 455.526 298.929C454.838 297.317 454.157 296.202 453.051 294.824L452.647 294.329Z"/>
	<path fill="#FEFEFE" d="M570.515 293.996C570.758 294.258 570.789 294.657 570.908 294.995C570.193 297.09 569.386 300.021 567.514 301.299L566.699 300.579C565.84 299.935 565.124 299.499 564.657 298.506C565.488 296.736 568.898 295.19 570.515 293.996Z"/>
	<path fill="#FEFEFE" d="M748.966 294.239L749.183 294.348L749.223 294.916C746.008 295.783 743.799 299.099 740.82 299.622C739.622 299.832 738.781 299.542 737.843 298.861C738.85 298.378 739.632 297.894 740.498 297.187L740.517 296.277L738.933 295.649L739.113 295.262C742.31 295.145 745.212 295.266 748.333 294.417L748.966 294.239Z"/>
	<path fill="#FEFEFE" d="M319.141 298.428C321.484 298.702 323.904 299.093 325.482 300.9L325.315 301.956C323.711 304.141 321.194 305.48 318.955 306.952C318.307 307.389 317.513 308.029 316.784 308.294C315.516 308.755 315.253 308.583 314.189 307.968C313.561 306.661 313.657 305.717 314.044 304.36C314.934 301.235 316.43 300.043 319.141 298.428Z"/>
	<path fill="#FEFEFE" d="M509.198 352.501C510.076 352.375 510.962 352.281 511.851 352.321C513.629 352.4 516.006 353.785 516.982 355.296C517.78 356.53 517.644 357.085 517.524 358.474C516.315 359.87 515.344 359.957 513.613 360.525C510.396 361.634 508.218 360.451 505.239 359.283L509.198 352.501Z"/>
	<path fill="#FEFEFE" d="M503.819 340.741C509.061 340.834 515.586 339.877 520.606 341.221C522.636 341.764 523.884 342.51 524.946 344.323C525.016 345.216 525.203 345.817 524.486 346.519C523.345 347.637 522.098 347.462 520.623 347.571C514.958 347.312 505.415 348.992 500.572 347.444Q502.125 344.058 503.819 340.741Z"/>
	<path fill="#FEFEFE" d="M368.071 260.139C370.555 259.876 373.133 259.962 375.633 259.915C369.44 266.891 363.093 273.627 355.664 279.312C356.183 277.597 357.197 275.276 356.332 273.657L355.432 273.79C354.419 275.412 354.459 277.828 354.259 279.704C353.391 279.059 353.219 278.926 352.104 278.762C352.095 279.369 352.134 280.126 352.027 280.734C351.765 282.207 351.551 282.3 350.414 283.18L349.525 283.044L349.44 281.946C350.172 280.776 350.775 279.798 351.117 278.438L350.44 277.811C348.986 278.088 347.523 278.397 346.044 278.5C345.135 278.563 344.411 278.804 343.719 278.183C351.998 270.372 355.578 262.101 368.071 260.139Z"/>
	<path fill="#FEFEFE" d="M671.104 279.568L670.662 278.743C670.404 278.753 670.147 278.783 669.89 278.774C666.38 278.658 657.102 269.05 654.781 266.312C654.093 265.501 654.098 265.441 654.023 264.387C655.131 263.196 656.636 263.077 658.19 263.035C662.734 262.91 670.43 264.11 673.868 267.179C675.719 268.832 677.251 272.489 678.27 274.753C677.689 275.329 677.114 275.801 676.446 276.275C676.715 276.264 676.983 276.238 677.251 276.243C679.033 276.278 679.6 276.613 680.789 277.898C682.025 279.232 683.492 281.13 683.537 282.962C679.299 280.071 675.765 280.95 671.104 279.568Z"/>
	<path fill="#FEFEFE" d="M493.789 327.73Q513.26 328.17 532.726 327.522C533.57 330.584 534.525 332.703 533.03 335.729C526.191 336.456 497.967 336.978 492.779 334.72C492.292 332.469 493.237 329.916 493.789 327.73Z"/>
	<path fill="#FEFEFE" d="M480.348 314.136Q488.38 314.991 496.445 315.433Q504.509 315.875 512.586 315.902Q520.663 315.93 528.731 315.543Q536.799 315.156 544.836 314.355C544.822 316.708 544.629 319.056 544.475 321.403C532.776 324.94 496.162 323.527 482.867 322.396C482.377 319.414 481.955 316.75 480.348 314.136Z"/>
	<path fill="#FEFEFE" d="M763.2 313.907C763.424 313.997 763.667 314.048 763.87 314.178C764.866 314.819 766.021 316.429 766.838 317.353C774.189 325.673 777.364 335.876 779.036 346.662C765.211 340.119 751.728 333.187 738.251 325.957Q737.247 325.445 736.256 324.909C734.868 324.154 732.968 323.209 732.486 321.586C734.831 321.849 737.444 322.43 739.753 321.844L739.786 321.202C736.969 318.793 734.274 316.225 731.545 313.718C735.561 315.037 743.645 317.052 745.813 321.018C746.564 322.391 746.682 324.156 747.232 325.635C747.654 326.773 748.448 328.246 749.39 329.034C750.322 329.813 751.084 329.948 752.254 329.908L752.903 329.201C752.807 326.709 751.235 324.191 750.188 321.956L750.491 321.466C751.01 321.89 751.642 322.53 752.314 322.685C753.897 323.05 757.636 322.258 759.05 321.542C759.757 320.289 757.838 319.146 758.182 317.165C759.4 315.492 761.386 314.794 763.2 313.907Z"/>
	<path fill="#FEFEFE" d="M468.023 299.525C477.94 301.723 488.108 304.295 498.237 305.165C505.057 305.75 511.632 304.863 518.418 304.416C523.351 304.091 528.306 304.19 533.242 303.824C541.86 303.184 550.195 301.539 558.604 299.629C557.536 302.677 556.661 305.371 556.247 308.595L556.359 309.737L555.756 310.245C548.603 308.468 540.855 310.938 533.59 311.35C524.861 311.844 515.979 311.955 507.234 311.964C498.216 311.974 489.582 310.661 480.638 310.092C478.41 309.951 473.312 310.893 471.543 309.639C469.358 308.091 468.631 302.143 468.023 299.525Z"/>
	<path fill="#FEFEFE" d="M285.541 311.584C286.935 312.439 288.277 313.788 289.554 314.834C287.624 316.473 284.598 319.046 284.201 321.7C284.016 322.937 284.274 323.297 285.039 324.118C287.096 323.883 289.159 321.432 290.655 320.07C290.661 320.47 290.698 320.687 290.517 321.097C287.316 328.375 254.755 342.011 246.711 345.323C246.158 345.345 246.519 345.384 245.734 344.845C246.228 334.282 253.937 322.742 258.827 313.519C260.47 313.477 262.133 313.584 263.774 313.673C269.993 314.011 275.642 312.681 281.655 311.324C280.032 311.942 278.098 312.401 276.597 313.229C275.464 313.854 274.603 314.565 274.198 315.776C274.331 315.838 274.457 315.918 274.597 315.962C276.927 316.692 283.632 314.838 285.766 313.678C284.862 313.256 283.634 313.689 282.965 313.092L285.541 311.584Z"/>
	<path fill="#FEFEFE" d="M678.373 222.728C679.904 223.124 681.284 223.68 682.722 224.326C695.576 230.102 703.306 237.411 708.324 250.596C707.881 253.581 707.44 256.444 706.523 259.328C706.5 257.137 707.134 253.94 705.619 252.127C701.25 255.288 705.182 262.832 703.603 266.694C702.874 264.583 702.141 261.986 702.049 259.738C701.985 258.168 702.597 256.264 702.077 254.751C701.622 253.426 701.065 253.225 699.903 252.703C699.077 254.136 700.35 257.29 699.815 259.246L698.88 259.758C698.745 259.687 698.599 259.634 698.475 259.546C696.051 257.815 695.718 252.374 695.395 249.591C694.158 249.429 694.104 249.318 693.075 249.987C691.764 258.087 688.905 251.471 684.707 255.216C684.982 257.257 687.556 258.571 688.5 260.446C688.958 261.356 688.814 261.619 688.528 262.521C686.574 263.69 684.365 262.503 682.249 263.008C681.36 263.221 681.444 263.438 680.967 264.157C681.274 269.827 686.837 274.817 690.372 278.87C683.621 274.463 675.97 267.366 673.604 259.44C670.6 249.379 673.378 231.672 678.373 222.728Z"/>
	<path fill="#FEFEFE" d="M753.863 276.52C764.368 276.443 781.102 284.221 789.165 290.948C779.862 299.356 766.072 308.831 753.725 311.495C746.914 312.964 740.445 312.13 734.628 308.273C737.939 308.379 744.272 309.629 746.91 307.795C746.25 305.114 744.287 306.926 742.707 305.712L743.383 304.616C741.884 304.799 740.787 304.789 739.295 304.559L739.707 303.746C741.161 303.547 741.729 303.161 742.873 302.319C743.259 294.069 752.981 297.668 756.117 294.299C756.788 293.578 757.079 292.06 757.805 291.173C758.337 290.524 758.159 290.763 759.195 290.684C759.439 291.251 759.669 291.811 759.874 292.394L760.047 292.897C760.525 293.024 760.638 293.074 761.2 293.109C762.684 293.2 764.431 293.168 765.631 292.228C765.882 290.978 765.755 291.033 765.054 289.943C759.991 286.992 753.235 292.225 748.57 291.391C747.903 291.272 747.667 290.365 747.357 289.818C746.408 289.847 743.95 292.178 742.956 292.84C741.789 292.948 741.788 293.007 740.84 292.337L740.766 291.618C743.225 289.94 746.02 288.86 748.295 286.92C745.809 287.889 743.211 288.841 740.518 288.866C740.669 288.731 740.811 288.585 740.971 288.461C742.656 287.168 748.924 284.416 750.97 284.792C751.83 284.95 752.191 285.075 753.044 284.72L753.302 284.054C748.524 280.975 744.199 285.185 739.809 284.102C741.81 280.73 750.302 277.872 753.863 276.52Z"/>
	<path fill="#FEFEFE" d="M348.57 222.836C350.089 223.123 350.836 224.136 351.643 225.37C356.801 233.255 356.053 250.908 354.218 259.928C351.707 262.842 342.531 272.724 339.26 273.123C339.846 271.026 342.658 269.064 344.279 267.651C343.026 266.26 342.324 264.414 340.573 263.78C337.859 264.648 335.436 269.062 333.823 271.298L333.433 270.623C333.803 267.822 337.503 257.826 339.284 255.475C340.548 253.807 342.77 252.576 343.498 250.549C343.954 249.276 343.509 248.4 342.988 247.243C341.426 246.964 339.858 246.749 338.366 246.188L339.563 246.04C340.362 245.649 339.98 245.925 340.656 245.141C339.865 244.235 339.521 243.968 338.243 243.784C337.099 243.62 336.306 244.006 335.491 244.721L335.65 245.988C336.541 247.084 337.529 248.059 337.803 249.486C336.899 250.854 335.657 251.183 334.207 251.907C331.923 255.82 330.676 261.236 327.866 264.679C327.162 265.542 327.542 265.319 326.475 265.402L325.998 263.802C326.448 262.287 327.205 261.903 328.377 260.877C327.479 259.322 327.498 256.993 326.991 255.213L326.213 255.137C325.631 255.709 325.35 256.119 325.108 256.905C324.337 259.414 323.357 261.27 322.002 263.509C322.231 264.423 322.375 265.248 322.433 266.189L321.592 266.571L320.666 265.974C318.451 261.144 321.306 252.265 322.621 247.225C325.871 234.759 338.33 228.825 348.57 222.836Z"/>
	<path fill="#040203" d="M326.715 250.15C328.011 250.315 329.25 250.3 330.242 251.245C330.353 252.662 330.078 252.901 329.364 254.159C328.026 254.384 327.719 254.603 326.535 253.987C325.97 252.737 326.45 251.434 326.715 250.15Z"/>
	<path fill="#FEFEFE" d="M318.065 275.659C318.801 275.628 319.516 275.605 320.253 275.645C330.834 276.222 337.013 281.522 343.947 288.944C339.038 293.272 333.496 297.079 328.102 300.774C327.859 300.187 327.618 299.614 327.327 299.049C325.949 296.37 323.918 294.462 320.993 293.592C318.423 292.828 315.773 293.127 313.458 294.5C309.917 296.598 308.618 299.919 307.678 303.729C307.823 306.903 308.775 309.094 310.283 311.847C306.589 314.134 303.077 316.885 299.535 319.408C298.84 319.2 298.202 318.999 297.622 318.54C294.729 316.253 293.647 311.499 293.093 307.997Q292.985 307.311 292.912 306.621Q292.838 305.931 292.798 305.238Q292.758 304.545 292.753 303.851Q292.747 303.157 292.775 302.464Q292.803 301.77 292.866 301.079Q292.928 300.388 293.024 299.7Q293.12 299.013 293.25 298.331Q293.38 297.649 293.543 296.975Q293.706 296.3 293.902 295.634Q294.097 294.968 294.326 294.313Q294.554 293.658 294.814 293.014Q295.074 292.371 295.366 291.741Q295.657 291.111 295.979 290.496Q296.301 289.881 296.653 289.283Q297.005 288.685 297.386 288.104Q297.766 287.524 298.175 286.963C303.244 280.083 309.7 276.858 318.065 275.659Z"/>
	<path fill="#FEFEFE" d="M746.851 222.42C746.98 222.465 747.115 222.498 747.239 222.557C748.409 223.119 749.018 224.547 749.441 225.698C753.154 235.798 751.484 253.272 746.84 262.977C743.5 269.955 738.126 275.351 730.782 277.975C733.508 275.3 736.888 272.997 739.149 269.905C740.097 268.609 740.732 267.416 740.483 265.763C738.357 266.568 736.37 270.417 734.526 272.062L733.333 271.966L733.095 271.447C734.083 269.471 736.001 269.027 736.945 267.099C736.721 265.924 736.639 265.42 735.451 264.803C734.37 264.242 732.782 264.235 731.675 264.721C729.836 265.527 729.234 268.082 728.469 269.828L727.763 269.804C727.078 266.695 730.783 261.984 731.646 258.799C732.815 254.487 733.152 249.844 733.682 245.412C732.445 247.466 731.796 249.489 731.113 251.761C728.236 256.152 727.488 252.833 724.903 255.308C724.016 256.158 723.594 257.611 723.578 258.784C724.34 259.74 724.928 260.589 725.491 261.686C725.682 265.432 722.949 268.326 720.899 271.229C721.565 268.049 723.372 264.72 722.368 261.5C721.418 260.472 721.139 260.119 719.726 259.779C718.128 259.394 716.692 259.687 715.322 260.563C714.761 262.512 713.548 265.052 714.037 267.005C716.142 266.129 718.028 263.651 719.622 262.024L719.902 262.412C719.289 263.876 718.343 265.489 717.331 266.711C716.613 267.578 715.64 268.081 714.49 267.941C713.154 267.779 712.839 267.191 712.099 266.211C711.252 262.131 712.613 254.347 713.914 250.308C718.643 235.62 734.284 229.088 746.851 222.42Z"/>
	<path fill="#FEFEFE" d="M276.532 224.61C288.475 228.46 303.224 236.057 310.939 246.144C314.656 251.004 315.645 255.003 314.872 260.935C313.314 261.916 311.811 262.995 310.294 264.038C309.544 262.747 308.876 261.085 307.477 260.53C305.291 262.394 307.936 263.497 307.291 265.633C306.377 265.782 305.893 265.94 305.138 266.48L304.839 268.71C303.19 267.21 302.003 264.955 301.489 262.797C301.116 261.231 301.02 260.369 299.745 259.303L298.88 259.434C298.899 260.419 298.915 261.352 298.777 262.33C297.872 260.914 297.021 259.387 296.027 258.039C295.137 256.832 294.899 256.32 294.664 254.847C294.486 253.734 294.335 252.835 293.891 251.783L292.421 251.344L291.723 251.748C291.583 253.402 292.581 254.227 292.954 255.706C293.302 257.085 292.954 257.515 292.349 258.703C289.691 259.999 290.247 257.841 288.28 257.377C288.056 258.35 288.057 258.864 288.13 259.836C289.206 260.045 290.295 260.2 291.286 260.689C291.957 261.019 291.856 261.364 292.054 262.031L291.52 262.633C290.807 262.378 290.147 262.104 289.462 261.775L288.759 261.428L288.674 261.947C289.538 262.789 290.355 263.592 291.108 264.537L290.072 265.255C291.192 266.363 292.357 265.992 293.721 266.43C296.418 267.295 297.652 273.903 298.816 276.48L299.105 277.11C298.803 276.806 298.496 276.508 298.198 276.2C293.541 271.402 291.65 272.637 286.745 269.841C286.861 268.131 288.561 267.929 288.761 266.383L287.777 266.502C286.607 267.429 285.712 268.127 284.99 269.476C285.216 270.441 285.144 270.676 285.871 271.421C286.897 272.472 288.034 272.991 289.522 272.922C289.785 272.909 290.045 272.861 290.307 272.83C290.234 274.029 290.183 274.774 290.68 275.882C291.786 276.469 292.692 277.004 293.661 277.814L293.506 278.423C293.379 278.419 293.25 278.434 293.125 278.412C289.898 277.858 282.114 273.495 280.261 270.77C273.126 260.277 274.394 236.684 276.532 224.61Z"/>
	<path fill="#FEFEFE" d="M266.559 272.189C266.739 272.18 266.92 272.143 267.099 272.163C268.471 272.319 268.737 272.498 269.549 273.507C269.636 274.75 269.585 276.569 270.043 277.727C270.479 278.828 271.042 279.351 272.102 279.77C272.95 278.589 272.846 277.913 272.962 276.485C271.97 276.799 272.185 276.941 271.166 276.429C270.685 275.176 270.391 274.818 270.682 273.528C270.83 273.482 270.973 273.417 271.126 273.389C274.792 272.706 283.742 279.398 286.85 281.724C288.299 282.808 289.699 283.841 289.973 285.741L289.221 286.625C285.556 287.733 282.425 285.557 278.969 284.633C277.797 284.319 277.723 284.132 276.618 284.754C276.111 286.07 275.827 287.301 275.576 288.677C273.797 289.959 271.663 290.807 269.461 290.631C268.571 289.918 268.362 290.061 268.193 288.874C270.002 288.566 272.709 288.179 274.085 286.929C273.953 286.823 273.833 286.7 273.689 286.612C272.241 285.726 270.148 285.701 268.565 286.123C267.406 287.095 266.806 287.507 266.39 289.025C266.618 289.936 266.849 290.544 266.699 291.484C265.515 291.21 265.157 290.859 264.028 291.405L264.346 292.166C265.446 292.205 265.059 292.241 266.059 292.102C267.448 291.91 270.076 293.894 271.383 294.63C271.702 296.123 272.03 297.544 272.552 298.98L273.15 299.133L275.799 297.51L275.861 297.052C274.565 297.079 273.844 297.177 272.634 296.606C273.25 295.768 273.542 295.417 273.762 294.378L271.651 293.025L271.202 291.629L271.774 291.104C275.021 295.098 282.038 296.761 286.918 297.782C286.926 298.017 286.936 298.252 286.94 298.487L286.951 299.505C286.955 299.711 286.963 299.916 286.965 300.121C286.985 302.006 286.667 303.198 285.252 304.543C283.759 305.963 282.211 306.081 280.243 306.075C279.937 305.315 279.868 305.109 279.224 304.558C277.159 305.778 275.515 307.511 273.522 308.806C271.119 310.367 268.011 309.571 265.365 308.972C255.885 306.827 237.229 294.301 232.119 286.283C239.8 277.621 255.413 273.404 266.559 272.189Z"/>
	<path fill="#FEFEFE" d="M709.258 273.155C713.058 273.215 716.605 273.851 720.076 275.412C725.419 277.816 730.051 282.212 732.101 287.765C734.328 293.801 733.683 302.005 730.751 307.743C729.222 310.734 726.724 313.512 723.411 314.482C720.041 315.469 717.746 314.434 714.84 312.742C705.205 306.209 696.065 299.143 686.896 291.983C688.052 288.263 689.51 284.946 691.941 281.868C696.406 276.212 702.335 273.986 709.258 273.155Z"/>
	<path fill="#040203" d="M708.452 288.486C709.882 288.289 711.352 288.185 712.777 288.501C714.783 288.946 716.603 290.319 717.685 292.049C718.763 293.771 719.049 295.771 718.504 297.728C717.745 300.456 715.926 301.746 713.525 302.99C712.441 303.002 711.323 303.028 710.245 302.893C707.938 302.604 705.616 301.185 704.329 299.25Q704.148 298.983 703.996 298.698Q703.844 298.414 703.721 298.115Q703.599 297.817 703.508 297.507Q703.417 297.197 703.359 296.88Q703.3 296.563 703.275 296.241Q703.249 295.919 703.257 295.597Q703.265 295.274 703.306 294.954Q703.346 294.634 703.42 294.32C704.059 291.479 706.12 289.956 708.452 288.486Z"/>
	<path fill="#FEFEFE" d="M401.265 247.875C401.323 248.089 401.401 248.298 401.439 248.517C402.009 251.806 401.69 256.259 400.5 259.381C398.499 264.626 385.568 279.892 381.55 285.195C378.367 289.396 375.429 293.771 372.334 298.037L371.711 297.934L371.9 297.66C371.399 296.148 370.894 294.671 369.307 294.003C367.511 293.246 365.363 293.43 363.647 294.323C362.792 294.767 362.101 295.523 361.914 296.477C361.579 298.185 362.299 299.857 363.274 301.241C364.59 303.111 366.549 303.175 368.649 303.53Q365.72 308.23 362.96 313.032Q360.2 317.834 357.612 322.731Q355.025 327.627 352.613 332.613Q350.201 337.599 347.968 342.667Q345.735 347.735 343.684 352.88Q341.633 358.024 339.766 363.238Q337.899 368.453 336.218 373.73Q334.538 379.007 333.046 384.341C291.519 384.096 249.981 384.993 208.456 384.107C208.963 382.878 209.367 381.839 209.508 380.497C209.01 378.936 208.351 377.664 206.723 377.025C205.535 376.56 203.902 376.666 202.709 377.084C199.684 378.147 201.707 381.525 200.621 384C198.855 385.092 197.239 384.837 195.211 384.889C186.998 384.934 178.77 384.724 170.555 384.653C186.577 377.957 205.009 373.012 221.509 366.632C262.003 350.975 300.794 332.397 336.336 307.257C342.035 303.226 347.928 299.285 353.333 294.866C370.616 280.738 386.423 264.505 401.265 247.875Z"/>
	<path fill="#040203" d="M291.325 342.434C293.525 342.437 295.221 342.405 296.962 343.943C298.038 344.894 298.473 345.992 298.483 347.426C298.498 349.574 296.953 351.13 295.53 352.517C293.347 352.637 291.745 352.712 290.065 351.062C289.055 350.069 288.566 348.82 288.6 347.418C288.654 345.162 289.754 343.914 291.325 342.434Z"/>
	<path fill="#040203" d="M248.072 361.99L248.48 361.971C250.469 361.891 252.164 361.896 253.6 363.524C254.546 364.596 254.771 365.804 254.664 367.189C254.499 369.324 253.204 370.734 251.714 372.115C251.093 372.171 250.628 372.228 249.988 372.207C248.273 372.149 246.727 371.532 245.678 370.119C244.904 369.076 244.686 367.806 244.882 366.538C245.222 364.349 246.466 363.321 248.072 361.99Z"/>
	<path fill="#040203" d="M328.793 320.006C328.992 320.007 329.19 320 329.389 320.008C331.484 320.087 333.31 320.428 334.76 322.07C335.838 323.291 336.235 324.52 336.064 326.159C335.847 328.254 334.426 329.571 332.862 330.784C331.039 330.855 329.577 330.848 328.089 329.679C326.849 328.706 326.155 327.281 326.099 325.709C326.009 323.173 327.1 321.753 328.793 320.006Z"/>
	<path fill="#FEFEFE" d="M622.002 248.163C626.504 250.509 637.405 263.348 641.754 267.61C649.201 274.907 657.067 282.359 665.297 288.75C684.282 303.492 703.862 318.351 724.53 330.664C731.24 334.662 738.344 338.118 745.313 341.644C780.11 359.253 816.383 372.028 853.471 383.828C848.276 383.945 843.071 383.945 837.875 384.001L819.959 383.972C820.89 383.061 821.902 382.165 822.217 380.836C822.495 379.662 822.266 378.32 821.602 377.312Q821.467 377.104 821.31 376.911Q821.154 376.718 820.978 376.543Q820.801 376.368 820.607 376.213Q820.414 376.058 820.204 375.925Q819.995 375.791 819.773 375.681Q819.55 375.57 819.317 375.484Q819.084 375.398 818.844 375.337Q818.603 375.277 818.357 375.242C817.038 375.045 815.669 375.46 814.604 376.241C813.363 377.15 812.91 377.971 812.609 379.49C812.773 380.662 812.94 381.276 813.747 382.135C814.609 383.052 814.37 382.498 814.583 383.509C810.624 384.101 806.034 383.664 802.012 383.673L776.42 383.723Q731.623 383.58 686.827 383.921C682.752 366.137 676.51 348.124 668.562 331.702C659.899 313.801 648.928 296.269 638.236 279.483C633.109 271.433 626.312 263.055 622.436 254.373C621.677 252.674 621.978 250.004 622.002 248.163Z"/>
	<path fill="#040203" d="M657.408 290.878C659.566 290.796 661.229 290.897 662.841 292.489C663.811 293.447 664.256 294.594 664.166 295.969C664.02 298.216 662.694 299.211 661.074 300.489C659.121 300.553 657.336 300.714 655.743 299.339C654.695 298.434 654.338 297.464 654.328 296.105C654.311 293.844 655.877 292.303 657.408 290.878Z"/>
	<path fill="#040203" d="M774.172 360.425C774.641 360.428 774.812 360.415 775.316 360.491C776.864 360.723 778.112 361.527 778.983 362.826C779.903 364.197 780.094 365.793 779.747 367.384C779.255 369.632 778.036 370.501 776.198 371.66C775.704 371.626 775.209 371.602 774.716 371.557C773.005 371.402 771.537 370.84 770.532 369.358C769.842 368.341 769.672 367.173 769.884 365.98C770.37 363.246 771.988 361.925 774.172 360.425Z"/>
	<path fill="#040203" d="M731.988 343.002C732.561 343.02 732.926 343.016 733.516 343.12C735.121 343.402 736.571 344.269 737.524 345.601Q737.672 345.809 737.799 346.031Q737.926 346.253 738.031 346.487Q738.135 346.72 738.216 346.963Q738.296 347.206 738.353 347.455Q738.409 347.705 738.44 347.959Q738.471 348.213 738.477 348.468Q738.482 348.724 738.463 348.979Q738.443 349.234 738.398 349.486C738 351.804 736.521 352.894 734.694 354.125C733.831 354.125 732.919 354.141 732.068 353.972C730.725 353.704 729.584 352.85 728.853 351.695C728.067 350.452 727.913 349.057 728.234 347.652C728.77 345.308 730.029 344.249 731.988 343.002Z"/>
	<path fill="#040203" d="M693.479 319.969C693.953 320.018 694.428 320.062 694.897 320.141C696.572 320.423 698.276 321.028 699.157 322.612C699.77 323.713 699.993 324.742 699.715 325.988C699.151 328.512 697.558 329.596 695.429 330.815C694.444 330.829 693.527 330.849 692.568 330.557C691.242 330.152 690.252 329.237 689.624 328.018C688.965 326.739 688.933 325.316 689.375 323.966C690.089 321.785 691.522 320.959 693.479 319.969Z"/>
	<path fill="#FEFEFE" d="M626.042 288.718C629.848 289.401 633.775 289.509 637.613 290.166C641.084 294.488 644.02 299.561 646.991 304.241C662.837 329.203 673.149 355.304 680.151 383.961L570.625 383.68C563.713 383.659 525.404 384.31 522.326 382.779C521.804 382.519 521.837 382.057 521.678 381.542C522.965 379.521 526.527 379.55 528.378 377.727C529.825 374.224 528.538 370.366 527.878 366.776C528.785 366.401 529.664 366.042 530.484 365.495C533.54 363.456 533.232 361.637 533.935 358.367C534.393 356.232 534.894 355.013 536.792 353.845C541.617 350.876 543.165 349.939 543.905 344.135C544.02 343.237 544.068 342.18 544.494 341.365C545.549 339.348 548.313 339.251 550.269 338.43C554.885 336.493 553.974 331.831 555.968 328.25C556.804 326.749 558.572 326.339 560.05 325.748C564.391 324.012 565.634 320.529 567.341 316.498C569.075 316.55 570.868 316.656 572.597 316.495C574.909 316.278 586.236 303.774 588.28 301.415C589.34 302.011 590.413 302.64 591.529 303.124C593.006 303.765 594.767 303.977 596.263 303.285C598.452 302.274 599.47 300.315 600.312 298.18C603.713 296.146 606.883 293.68 610.137 291.416C612.517 293.403 615.526 295.775 618.802 295.424C622.176 295.062 624.273 291.192 626.042 288.718Z"/>
	<path fill="#FEFEFE" d="M392.692 284.382C392.835 284.5 393.022 284.58 393.123 284.736C394.371 286.665 395.295 289.703 397.593 290.773C399.411 291.619 404.184 289.741 406.102 289.18C408.494 291.705 410.762 294.585 414.131 295.803C417.359 296.97 418.411 295.22 421.261 294.394C426.444 292.89 426.554 301.681 429.774 303.221C433.133 304.827 437.672 303.067 440.961 302.078C441.926 303.97 442.892 305.942 444.075 307.705C446.794 311.755 450.122 314.127 454.878 315.053C457.634 315.59 458.537 320.577 460.678 322.436C462.632 324.133 465.827 325.152 468.199 326.185C468.475 328.85 468.993 331.486 470.221 333.89C472.05 337.471 474.449 337.789 477.973 338.903C482.685 340.392 480.25 345.14 482.159 348.47C483.962 351.618 487.568 352.904 490.83 353.886C490.117 356.246 489.122 359.118 489.945 361.56C490.941 364.519 494.179 365.692 496.774 366.888C496.273 369.53 495.367 372.75 495.741 375.421C496.213 378.787 499.516 379.644 501.999 381.424L502.003 381.952C496.412 384.629 466.177 383.506 457.824 383.54C418.568 383.673 379.318 384.604 340.062 384.293C346.516 356.926 358.014 332.076 373.101 308.451C378.9 299.371 384.141 291.148 392.692 284.382Z"/>
</svg>
